<?xml version="1.0" standalone="no"?><!DOCTYPE svg PUBLIC "-//W3C//DTD SVG 1.1//EN" "http://www.w3.org/Graphics/SVG/1.1/DTD/svg11.dtd"><svg t="1510623871924" class="icon" style="" viewBox="0 0 1024 1024" version="1.1" xmlns="http://www.w3.org/2000/svg" p-id="1435" xmlns:xlink="http://www.w3.org/1999/xlink" width="32" height="32"><defs><style type="text/css"></style></defs><path d="M819.2 172.373333c-29.013333-23.893333-71.68-20.48-95.573333 8.533334-23.893333 29.013333-20.48 71.68 8.533333 95.573333 76.8 64.853333 119.466667 158.72 119.466667 257.706667 0 186.026667-151.893333 337.92-337.92 337.92s-337.92-151.893333-337.92-337.92c0-98.986667 44.373333-194.56 119.466666-257.706667 29.013333-23.893333 32.426667-68.266667 8.533334-95.573333-23.893333-29.013333-68.266667-32.426667-95.573334-8.533334-107.52 90.453333-168.96 223.573333-168.96 363.52 0 262.826667 213.333333 474.453333 474.453334 474.453334s474.453333-213.333333 474.453333-474.453334c-1.706667-141.653333-63.146667-273.066667-168.96-363.52z" fill="#ffffff" p-id="1436"></path><path d="M512 675.84c37.546667 0 68.266667-30.72 68.266667-68.266667V81.92c0-37.546667-30.72-68.266667-68.266667-68.266667s-68.266667 30.72-68.266667 68.266667v525.653333c0 37.546667 30.72 68.266667 68.266667 68.266667z" fill="#ffffff" p-id="1437"></path></svg>